<?xml version="1.0" encoding="UTF-8" standalone="no"?>
<!DOCTYPE svg PUBLIC "-//W3C//DTD SVG 1.1//EN" "http://www.w3.org/Graphics/SVG/1.1/DTD/svg11.dtd">
<svg width="100%" height="100%" viewBox="0 0 98 123" version="1.1" xmlns="http://www.w3.org/2000/svg" xmlns:xlink="http://www.w3.org/1999/xlink" xml:space="preserve" xmlns:serif="http://www.serif.com/" style="fill-rule:evenodd;clip-rule:evenodd;stroke-linejoin:round;stroke-miterlimit:2;">
    <g transform="matrix(1,0,0,1,-1771.04,-16.8099)">
        <g transform="matrix(0.710454,0,0,0.710454,555.932,-270.906)">
            <g id="path4336-9" transform="matrix(1,0,0,1,2586.03,0)">
                <path d="M-859.02,404.975C-859.476,405.39 -860.274,406.119 -861.15,407.72C-868.698,425.162 -879.558,430.934 -874.313,445.511L-852.375,466.252C-858.22,487.427 -865.651,508.228 -870.424,529.67C-870.479,532.37 -871.771,535.777 -871.022,538.046L-854.27,546.124L-858.558,560.282C-858.558,560.282 -873.854,564.356 -874.512,565.169C-875.579,566.486 -874.822,571.536 -873.914,573.744C-871.963,574.647 -842.541,574.348 -840.11,572.547C-838.396,571.277 -837.118,550.431 -837.118,550.431C-826.064,551.607 -817.546,553.28 -805.457,553.803L-806.008,562.377L-805.796,568.858C-807.082,579.422 -791.304,577.33 -772.207,576.835C-770.829,575.754 -768.672,570.763 -769.315,568.858L-786.666,563.473L-786.666,553.801C-777.35,553.715 -770.579,554.61 -762.525,554.742C-760.09,553.336 -755.783,551.901 -756.018,548.606C-756.857,533.216 -761.449,523.476 -765.626,508.83L-773.504,484.101C-765.566,482.131 -758.508,480.269 -750.27,475.127C-742.138,470.468 -738.659,463.012 -738.53,459.312C-738.385,455.166 -740.689,447.729 -744.087,442.221L-761.327,420.732L-774.887,422.926C-770.149,433.9 -764.757,440.794 -758.048,450.397C-756.321,458.742 -758.103,461.57 -771.808,463.361C-782.514,461.682 -790.957,457.348 -799.902,451.61C-794.9,446.409 -792.513,440.001 -793.574,431.582C-794.101,426.525 -799.231,424.382 -803.463,423.435C-806.861,422.452 -810.77,422.178 -812.868,424.385C-816.51,428.705 -820.577,435.11 -819.98,440.986L-819.271,449.7C-826.491,449.363 -834.3,450.648 -840.511,446.01L-856.565,434.842L-847.192,406.35C-851.689,405.956 -854.995,405.433 -859.02,404.975ZM-854.968,411.994L-863.941,437.486L-845.641,450.545C-847.198,452.672 -848.506,456.152 -850.025,459.489C-850.025,459.489 -854.819,455.14 -858.135,451.82C-863.3,446.827 -866.162,445.008 -868.42,441.15C-869.884,440.343 -868.375,435.64 -868.017,433.555C-866.296,429.954 -858.03,412.634 -857.573,411.802L-854.968,411.994ZM-762.393,427.128L-748.968,444.925C-746.792,447.482 -745.286,450.479 -744.757,454.411C-744.273,458.002 -744.448,458.211 -745.743,462.74C-745.743,462.74 -750.001,467.497 -754.294,470.671C-760.045,473.483 -768.311,477.423 -773.86,477.267C-774.896,477.522 -775.794,470.931 -776.179,468.671C-771.495,468.444 -759.379,467.955 -754.76,462.764C-751.544,458.972 -750.692,452.788 -754.528,445.436C-762.277,435.911 -762.019,437.292 -766.79,427.932L-762.393,427.128ZM-808.296,428.982C-807.834,428.927 -807.274,428.906 -806.683,428.982C-806.092,429.057 -805.469,429.216 -804.207,429.512C-802.945,429.808 -801.258,430.508 -800.063,431.21C-798.869,431.914 -798.889,436.498 -798.892,440.048C-800.831,446.364 -805.77,451.42 -805.875,452.516C-805.552,454.082 -800.709,456.008 -799.89,457.373C-799.095,458.699 -799.275,459.167 -801.048,459.033C-804.59,458.762 -819.753,456.888 -820.703,456.331C-821.657,455.771 -821.847,455.844 -821.4,454.521C-820.953,453.2 -813.398,452.807 -813.381,452.279L-814.799,440.683C-815.016,438.424 -813.753,433.573 -811.935,431.473C-810.117,429.374 -809.179,429.086 -808.294,428.982L-808.296,428.982ZM-838.611,456.947C-827.294,457.436 -828.831,475.31 -836.293,476.232C-845.777,477.403 -848.919,470.032 -847.463,464.746C-845.255,456.73 -838.611,456.947 -838.611,456.947ZM-840.087,458.949C-841.564,459.118 -843.838,460.379 -845.249,465.377C-846.522,469.882 -841.961,475.331 -836.398,473.597C-830.339,471.708 -831.851,460.446 -836.819,459.371C-836.819,459.371 -839.199,458.848 -840.085,458.95L-840.087,458.949ZM-825.337,460.369C-824.294,461.078 -823.549,461.615 -825.234,467.349C-825.829,469.371 -826.751,475.395 -826.031,477.619C-826.031,477.619 -827.382,477.763 -828.026,477.419C-828.988,476.909 -828.192,470.249 -828.026,469.342C-827.855,468.436 -826.451,460.271 -825.333,460.368L-825.337,460.369ZM-820.751,461.067C-818.893,461.228 -817.865,462.512 -819.554,468.247C-820.15,470.269 -819.97,476.199 -820.85,478.317C-820.85,478.317 -822.101,478.561 -822.744,478.215C-823.706,477.705 -822.513,470.347 -822.347,469.44C-822.18,468.533 -821.583,461.677 -820.752,461.064L-820.751,461.067ZM-814.269,461.566C-813.013,461.916 -813.466,464.738 -813.871,469.144C-814.057,471.13 -813.985,476.798 -814.868,478.917C-814.868,478.917 -816.166,479.757 -817.061,478.717C-817.717,477.957 -816.928,470.849 -816.761,469.942C-816.595,469.035 -816.527,462.927 -815.764,462.264C-815.312,461.697 -814.61,461.49 -814.268,461.566L-814.269,461.566ZM-802.203,461.867C-802.203,461.867 -796.08,461.689 -794.027,469.446C-792.673,474.562 -795.682,481.748 -804.497,480.614C-811.432,479.722 -812.721,462.341 -802.203,461.867ZM-840.402,463.273C-840.402,463.273 -837.599,462.783 -835.976,464.748C-834.354,466.711 -836.37,469.322 -839.138,470.122C-841.906,470.923 -842.714,465.448 -840.402,463.273ZM-800.907,463.864C-802.049,463.434 -803.999,464.262 -803.999,464.262C-808.617,465.302 -809.929,476.293 -804.299,478.122C-799.129,479.8 -794.94,474.404 -796.123,470.045C-797.436,465.207 -799.536,464.021 -800.91,463.863L-800.907,463.864ZM-790.337,466.357C-789.992,466.245 -789.531,466.255 -789.141,466.755C-788.572,467.483 -788.853,474.617 -788.941,475.53C-789.031,476.443 -788.856,482.51 -789.441,483.208C-791.426,485.59 -791.471,482.419 -791.335,476.527C-791.28,474.536 -791.542,468.912 -790.937,466.755C-790.937,466.755 -790.684,466.467 -790.339,466.357L-790.337,466.357ZM-786.396,466.951C-786.32,467.269 -785.666,466.951 -785.387,467.084C-784.553,467.491 -784.585,474.91 -784.614,475.827C-784.659,476.744 -784.063,484.23 -784.959,484.244C-786.475,484.289 -787.41,483.126 -786.716,477.264C-786.475,475.196 -787.454,469.281 -786.986,467.089C-786.986,467.089 -786.472,466.626 -786.396,466.944L-786.396,466.951ZM-802.303,467.358C-801.055,467.004 -799.673,467.868 -798.814,470.548C-798.814,470.548 -798.535,473.918 -800.907,474.338C-803.585,474.811 -805.668,471.966 -804.298,469.252C-803.814,468.29 -803.052,467.569 -802.303,467.358ZM-782.547,467.515C-782.233,467.411 -781.82,467.456 -781.532,467.562C-780.667,467.897 -779.886,474.558 -779.838,475.474C-779.791,476.391 -779.259,484.61 -780.165,484.699C-781.673,484.85 -781.897,483.77 -781.695,477.871C-781.627,475.79 -782.438,470.037 -783.139,467.842C-783.139,467.842 -782.314,467.278 -782.544,467.51L-782.547,467.515ZM-849.468,481.319C-849.957,481.319 -848.458,481.66 -847.873,482.316C-847.873,482.316 -847.008,484.235 -848.073,485.607C-849.11,486.944 -851.56,485.961 -851.563,484.311C-851.563,483.194 -850.949,481.753 -849.967,481.419C-849.818,481.364 -849.467,481.158 -849.467,481.315L-849.468,481.319ZM-837.702,482.017C-836.505,482.217 -827.432,498.47 -826.334,498.57C-825.238,498.672 -810.54,484.41 -807.788,484.311C-806.09,484.254 -793.731,503.274 -792.232,503.356C-790.866,503.43 -775.022,487.914 -774.882,488.798C-774.638,490.339 -790.573,506.265 -792.232,506.447C-794.514,506.699 -805.83,486.476 -807.988,486.504C-810.78,486.559 -825.238,501.96 -826.933,501.561C-828.629,501.163 -836.51,484.683 -837.902,484.809C-839.194,484.922 -853.257,497.273 -854.952,498.37C-856.648,499.467 -856.847,497.373 -856.847,497.373C-856.847,497.373 -838.899,481.818 -837.702,482.017ZM-824.839,484.609C-824.121,484.464 -823.321,484.664 -822.645,485.109C-822.645,485.109 -821.706,487.089 -822.845,488.4C-824.13,489.879 -826.49,489.218 -826.833,487.104C-827.033,485.855 -826.036,484.849 -824.84,484.611L-824.839,484.609ZM-791.834,488.997C-791.242,488.893 -790.476,489.148 -789.54,489.795C-789.54,489.795 -788.002,491.476 -789.142,492.786C-790.427,494.265 -792.785,493.604 -793.13,491.49C-793.33,490.241 -790.831,488.997 -791.834,488.997L-791.834,488.997ZM-839.297,491.988C-839.297,491.988 -837.765,493.186 -837.902,494.88C-838.041,496.574 -840.051,496.695 -841.691,495.678C-843.33,494.661 -841.35,491.819 -839.297,491.988ZM-810.081,495.379C-810.081,495.379 -808.135,495.074 -806.99,496.376C-805.845,497.68 -807.234,499.334 -809.184,499.866C-811.137,500.398 -811.713,496.824 -810.081,495.379ZM-775.58,497.473C-775.297,497.473 -775.043,497.528 -774.782,497.577C-774.782,497.577 -773.572,499.145 -774.282,500.867C-774.995,502.59 -777.194,502.212 -778.571,500.765C-779.774,499.501 -777.556,497.527 -775.579,497.474L-775.58,497.473ZM-855.651,499.368C-851.325,498.974 -841.911,500.301 -822.744,503.356C-811.929,505.08 -780.239,508.431 -769.098,507.444C-769.098,507.444 -767.39,510.164 -768.797,511.432C-770.904,513.329 -806.282,510.102 -811.076,509.538C-815.871,508.974 -858.826,504.181 -858.939,501.86C-859.015,500.414 -858.244,499.604 -855.649,499.368L-855.651,499.368ZM-858.941,506.746C-858.494,506.746 -857.514,506.858 -856.249,507.047C-856.367,507.388 -856.581,507.831 -856.748,508.443C-856.893,508.97 -856.934,509.321 -856.948,509.64C-858.92,509.224 -860.13,508.849 -860.039,508.543C-859.641,507.197 -859.601,506.773 -858.943,506.748L-858.941,506.746ZM-855.252,507.144C-855.027,507.144 -854.747,507.199 -854.354,507.246C-854.354,507.246 -854.036,507.17 -853.756,507.246C-853.481,507.323 -853.251,507.473 -853.358,507.944C-853.628,509.139 -853.413,510.74 -855.153,510.137C-856.141,510.082 -856.805,510.061 -856.349,508.542C-856.009,507.402 -855.92,507.142 -855.253,507.146L-855.252,507.144ZM-852.859,507.543C-852.469,507.602 -850.512,507.883 -849.468,508.042C-849.613,508.343 -849.712,508.742 -849.867,509.438C-850,510.02 -850.127,510.44 -850.067,510.734C-851.115,510.578 -852.467,510.38 -853.357,510.235C-853.113,509.517 -853.06,508.571 -852.858,507.642L-852.858,507.54L-852.859,507.543ZM-855.152,507.843C-855.209,507.955 -855.32,507.926 -855.352,507.945C-855.407,508 -855.501,508.028 -855.552,508.145C-855.607,508.267 -855.607,508.4 -855.656,508.645C-855.732,508.877 -855.768,509.035 -855.758,509.145C-855.758,509.256 -855.813,509.317 -855.758,509.345C-855.679,509.4 -855.404,509.427 -855.06,509.449L-854.956,509.449C-854.681,509.539 -854.532,509.568 -854.457,509.549C-854.38,509.494 -854.308,509.468 -854.257,509.349C-854.153,509.105 -854.155,508.65 -854.056,508.252C-854.001,508.125 -854.001,507.992 -854.056,507.951C-854.111,507.896 -854.203,507.951 -854.257,507.951C-854.368,507.896 -854.558,507.951 -854.558,507.951C-854.827,507.896 -855.1,507.739 -855.156,507.849L-855.152,507.843ZM-848.271,508.144C-848.271,507.927 -847.767,508.199 -847.374,508.248C-847.374,508.248 -846.954,508.169 -846.676,508.248C-846.401,508.314 -846.27,508.474 -846.376,508.946C-846.646,510.14 -846.319,511.742 -848.071,511.14C-849.059,511.085 -849.723,511.063 -849.267,509.544C-848.927,508.404 -848.936,508.144 -848.27,508.149L-848.271,508.144ZM-845.878,508.543C-844.983,508.66 -843.447,508.798 -842.389,508.94C-842.551,509.241 -842.623,509.668 -842.786,510.436C-842.898,510.962 -842.931,511.347 -842.888,511.633C-843.985,511.494 -845.266,511.372 -846.279,511.235C-845.951,510.641 -846.026,509.566 -845.88,508.642L-845.88,508.538L-845.878,508.543ZM-848.271,508.843C-848.271,508.767 -848.42,509.024 -848.472,509.144C-848.526,509.263 -848.591,509.399 -848.672,509.643C-848.748,509.875 -848.672,510.033 -848.672,510.143C-848.672,510.255 -848.727,510.314 -848.672,510.343C-848.591,510.398 -848.318,510.426 -847.973,510.445C-847.918,510.446 -847.889,510.445 -847.871,510.445C-847.601,510.535 -847.543,510.565 -847.473,510.547C-847.396,510.492 -847.326,510.369 -847.273,510.246C-847.169,510.005 -847.169,509.647 -847.073,509.248C-847.018,509.123 -846.953,508.988 -846.973,508.948C-847.028,508.893 -847.12,508.948 -847.173,508.948C-847.285,508.893 -847.473,508.948 -847.473,508.948C-847.528,508.947 -847.558,508.948 -847.577,508.948C-847.847,508.893 -848.05,508.844 -848.175,508.844C-848.303,508.844 -848.244,508.789 -848.279,508.844L-848.271,508.843ZM-841.491,509.043C-840.288,509.275 -838.757,508.967 -839.297,510.739C-839.352,511.728 -839.242,512.439 -840.793,512.036C-842.329,511.628 -842.314,511.717 -842.189,510.141C-842.189,510.141 -842.248,509.72 -842.189,509.443C-842.131,509.164 -841.962,508.954 -841.491,509.045L-841.491,509.043ZM-838.799,509.442C-837.774,509.567 -836.337,509.702 -835.209,509.84C-835.485,510.287 -835.409,510.937 -835.409,510.937C-835.468,511.76 -835.5,512.205 -835.409,512.532C-836.57,512.393 -837.993,512.272 -839.099,512.134C-838.839,511.524 -838.929,510.526 -838.798,509.641L-838.798,509.441L-838.799,509.442ZM-841.391,509.743C-841.446,509.798 -841.481,509.89 -841.493,509.943C-841.548,510.055 -841.493,510.244 -841.493,510.244C-841.548,510.514 -841.493,510.718 -841.493,510.842C-841.493,510.97 -841.548,511.011 -841.493,511.042C-841.438,511.097 -841.417,511.097 -841.293,511.144C-841.17,511.199 -840.934,511.272 -840.695,511.344C-840.461,511.411 -840.305,511.456 -840.195,511.448C-840.083,511.448 -840.024,511.39 -839.995,511.344C-839.94,511.27 -839.995,510.99 -839.995,510.646C-839.912,510.371 -839.867,510.222 -839.891,510.147C-839.946,510.072 -839.967,509.998 -840.091,509.947C-840.338,509.853 -840.786,509.833 -841.187,509.747C-841.315,509.692 -841.354,509.692 -841.387,509.747L-841.391,509.743ZM-834.411,509.845C-834.194,509.753 -833.863,509.79 -833.415,509.949C-832.425,509.894 -831.779,509.79 -832.118,511.345C-832.454,512.896 -832.335,512.901 -833.913,512.841C-833.913,512.841 -834.333,512.896 -834.61,512.841C-834.89,512.786 -835.079,512.617 -835.009,512.143C-834.876,511.233 -835.064,510.131 -834.41,509.849L-834.411,509.845ZM-831.42,510.244C-830.044,510.402 -828.328,510.579 -826.833,510.743C-826.953,511.044 -827.081,511.419 -827.231,512.04C-827.398,512.72 -827.433,513.135 -827.333,513.436C-828.733,513.285 -830.263,513.086 -831.62,512.936C-831.487,512.578 -831.53,512.121 -831.516,511.54C-831.352,510.962 -831.33,510.537 -831.412,510.244L-831.42,510.244ZM-834.013,510.544C-834.09,510.599 -834.172,510.621 -834.213,510.744C-834.303,510.997 -834.268,511.436 -834.317,511.841C-834.372,511.968 -834.372,512.111 -834.317,512.142C-834.262,512.197 -834.262,512.142 -834.213,512.142C-834.102,512.197 -833.815,512.142 -833.815,512.142L-833.217,512.142C-833.089,512.142 -833.046,512.197 -833.017,512.142C-832.962,512.087 -832.958,511.972 -832.913,511.841C-832.858,511.72 -832.774,511.588 -832.712,511.342C-832.656,511.108 -832.658,510.952 -832.712,510.842C-832.767,510.738 -832.771,510.671 -832.816,510.642C-832.899,510.587 -833.17,510.53 -833.514,510.538C-833.793,510.471 -833.939,510.483 -834.014,510.538L-834.013,510.544ZM-826.135,510.744C-825.923,510.689 -825.62,510.744 -825.238,510.848C-823.71,511.277 -823.686,511.167 -823.842,512.742C-823.842,512.742 -823.897,513.163 -823.946,513.44C-824.012,513.719 -824.173,513.94 -824.644,513.839C-825.842,513.586 -827.314,513.784 -826.738,512.044C-826.683,511.302 -826.793,510.805 -826.14,510.748L-826.135,510.744ZM-823.243,511.143C-822.098,511.256 -820.758,511.421 -819.554,511.541C-819.788,512.16 -819.756,513.058 -819.854,513.934C-819.854,514.055 -819.909,514.136 -819.854,514.235C-821.083,514.11 -822.33,513.965 -823.544,513.837C-823.283,513.231 -823.395,512.205 -823.243,511.344L-823.243,511.144L-823.243,511.143ZM-825.836,511.443C-825.836,511.555 -826.009,511.502 -826.036,511.547C-826.091,511.622 -826.126,511.8 -826.138,512.146C-826.139,512.201 -826.138,512.23 -826.138,512.248C-826.223,512.523 -826.193,512.672 -826.138,512.747C-826.083,512.821 -826.066,512.896 -825.938,512.947C-825.691,513.049 -825.241,513.051 -824.841,513.147C-824.714,513.202 -824.675,513.202 -824.641,513.147C-824.586,513.092 -824.551,513.004 -824.537,512.947C-824.482,512.835 -824.537,512.646 -824.537,512.646C-824.537,512.591 -824.537,512.562 -824.537,512.542C-824.482,512.272 -824.537,512.171 -824.537,512.043C-824.537,511.915 -824.482,511.872 -824.537,511.843C-824.592,511.788 -824.614,511.696 -824.738,511.643C-824.855,511.588 -825.096,511.588 -825.336,511.539C-825.568,511.462 -825.726,511.427 -825.836,511.435L-825.836,511.443ZM-818.157,511.547C-817.933,511.547 -817.653,511.606 -817.26,511.649C-817.26,511.649 -816.942,511.59 -816.662,511.649C-816.384,511.708 -816.173,511.876 -816.264,512.348C-816.498,513.55 -816.091,515.088 -817.86,514.541C-818.849,514.486 -819.564,514.596 -819.156,513.045C-818.851,511.895 -818.824,511.566 -818.158,511.549L-818.157,511.547ZM-815.765,511.848C-814.391,511.974 -812.619,512.124 -811.178,512.246C-811.402,512.522 -811.568,512.959 -811.776,513.842C-811.888,514.32 -811.903,514.661 -811.88,514.939C-813.45,514.78 -814.696,514.705 -816.268,514.541C-816.109,514.24 -816.015,513.836 -815.869,513.046C-815.777,512.518 -815.718,512.133 -815.765,511.849L-815.765,511.848ZM-818.058,512.246C-818.013,512.113 -818.133,512.328 -818.158,512.348C-818.213,512.403 -818.315,512.425 -818.359,512.548C-818.413,512.674 -818.413,512.801 -818.462,513.048C-818.529,513.282 -818.574,513.437 -818.564,513.547C-818.564,513.659 -818.506,513.72 -818.462,513.748C-818.386,513.802 -818.108,513.84 -817.765,513.85C-817.492,513.926 -817.34,513.904 -817.265,513.85C-817.19,513.795 -817.116,513.767 -817.065,513.649C-816.961,513.402 -816.951,512.954 -816.865,512.553C-816.81,512.425 -816.81,512.386 -816.865,512.353C-816.92,512.298 -817.014,512.353 -817.065,512.353C-817.176,512.298 -817.365,512.353 -817.365,512.353L-817.469,512.353C-817.745,512.298 -818.093,512.355 -818.068,512.249L-818.058,512.246ZM-810.48,512.446C-810.629,512.595 -809.964,512.446 -809.582,512.55C-808.055,512.979 -808.03,512.869 -808.187,514.445C-808.187,514.445 -808.242,514.865 -808.291,515.143C-808.357,515.421 -808.517,515.642 -808.989,515.54C-810.188,515.287 -811.657,515.485 -811.082,513.746C-811.027,513.004 -810.032,511.998 -810.484,512.449L-810.48,512.446ZM-807.887,512.446C-806.461,512.566 -804.776,512.625 -803.301,512.747C-803.528,513.11 -803.501,513.757 -803.501,514.442C-803.672,515.074 -803.72,515.443 -803.603,515.738C-805.2,515.58 -806.368,515.504 -807.99,515.34C-807.812,514.73 -807.914,513.931 -807.79,513.147C-807.735,512.871 -807.79,512.604 -807.894,512.449L-807.887,512.446ZM-859.34,512.55C-854.032,512.627 -843.968,514.281 -830.722,515.841C-819.845,517.121 -777.911,522.511 -766.207,521.524C-766.207,521.524 -761.444,524.085 -765.11,525.213C-767.819,526.047 -790.13,524.481 -794.925,523.918C-799.719,523.353 -862.27,518.155 -863.528,514.445C-864.017,512.998 -862.525,512.504 -859.34,512.55ZM-802.303,513.05C-801.1,513.281 -799.949,512.991 -800.024,514.78C-800.078,515.769 -800.069,516.444 -801.605,516.042C-803.141,515.639 -803.127,515.723 -803.002,514.147C-803.002,514.147 -803.061,513.726 -803.002,513.449C-802.943,513.171 -802.775,512.96 -802.303,513.051L-802.303,513.05ZM-795.452,513.439C-795.177,513.988 -795.291,516.213 -795.806,516.526C-796.152,516.761 -799.146,516.481 -799.437,516.181C-799.707,515.863 -799.369,513.641 -799.369,513.194C-798.156,512.796 -795.925,513.253 -795.454,513.441L-795.452,513.439ZM-810.181,513.151C-810.098,513.232 -810.353,513.21 -810.381,513.255C-810.436,513.338 -810.471,513.508 -810.481,513.854C-810.482,513.909 -810.481,513.938 -810.481,513.956C-810.567,514.231 -810.536,514.381 -810.481,514.455C-810.426,514.534 -810.408,514.602 -810.281,514.655C-810.033,514.759 -809.583,514.759 -809.183,514.855C-809.056,514.91 -809.017,514.91 -808.984,514.855C-808.929,514.801 -808.893,514.707 -808.88,514.655C-808.825,514.544 -808.88,514.355 -808.88,514.355C-808.879,514.3 -808.88,514.27 -808.88,514.251C-808.825,513.981 -808.88,513.879 -808.88,513.752C-808.88,513.626 -808.825,513.581 -808.88,513.552C-808.935,513.497 -808.956,513.395 -809.08,513.352C-809.197,513.297 -809.438,513.297 -809.678,513.248C-809.91,513.171 -810.068,513.136 -810.178,513.146L-810.181,513.151ZM-794.127,513.55C-793.893,513.458 -793.622,513.495 -793.13,513.654C-792.042,513.599 -791.261,513.495 -791.634,515.049C-792.006,516.601 -791.89,516.604 -793.628,516.545C-793.628,516.545 -794.017,516.6 -794.326,516.545C-794.636,516.49 -794.903,516.321 -794.826,515.848C-794.679,514.938 -794.93,513.554 -794.128,513.554L-794.127,513.55ZM-790.936,513.654C-789.668,513.269 -788.282,513.878 -786.799,513.972C-786.324,514.017 -786.405,515.036 -786.449,515.849C-786.504,516.526 -786.588,516.848 -786.539,517.259C-787.112,517.471 -789.303,517.11 -791.136,516.945C-791.136,515.48 -790.999,514.651 -790.936,513.652L-790.936,513.654ZM-802.203,513.757C-802.258,513.812 -802.293,513.906 -802.307,513.957C-802.362,514.069 -802.307,514.258 -802.307,514.258C-802.362,514.534 -802.307,514.731 -802.307,514.857C-802.307,514.984 -802.362,515.021 -802.307,515.053C-802.252,515.108 -802.231,515.108 -802.107,515.157C-801.98,515.212 -801.748,515.282 -801.508,515.357C-801.274,515.423 -801.119,515.469 -801.009,515.461C-800.897,515.461 -800.836,515.402 -800.809,515.357C-800.754,515.28 -800.67,515.074 -800.67,514.728C-800.587,514.453 -800.67,514.234 -800.715,514.159C-800.77,514.083 -800.791,514.008 -800.915,513.959C-801.162,513.867 -801.61,513.846 -802.012,513.759C-802.139,513.704 -802.179,513.704 -802.212,513.759L-802.203,513.757ZM-785.153,514.156C-783.859,514.318 -782.24,513.74 -782.66,515.851C-782.593,517.004 -782.499,517.88 -784.155,517.545C-785.815,517.209 -785.847,517.298 -785.85,515.452C-785.85,515.452 -785.905,514.984 -785.85,514.654C-785.796,514.327 -785.66,514.091 -785.153,514.154L-785.153,514.156ZM-793.728,514.26C-793.728,514.354 -793.879,514.336 -793.928,514.46C-794.02,514.712 -794.053,515.152 -794.128,515.557C-794.183,515.679 -794.051,515.827 -794.024,515.858C-793.969,515.913 -793.969,515.858 -793.922,515.858C-793.801,515.913 -793.524,515.858 -793.524,515.858L-792.826,515.858C-792.687,515.858 -792.656,515.913 -792.626,515.858C-792.571,515.803 -792.571,515.685 -792.522,515.557C-792.467,515.432 -792.389,515.304 -792.322,515.057C-792.263,514.823 -792.267,514.668 -792.322,514.558C-792.377,514.454 -792.381,514.389 -792.426,514.357C-792.516,514.302 -792.749,514.246 -793.124,514.253C-793.179,514.254 -793.208,514.253 -793.228,514.253C-793.533,514.187 -793.648,514.199 -793.727,514.253L-793.728,514.26ZM-782.161,514.26C-780.693,514.26 -779.002,514.387 -777.475,514.46C-777.608,514.954 -777.709,515.678 -777.776,516.853C-777.831,517.408 -777.717,517.683 -777.674,518.05C-779.589,517.891 -779.779,517.959 -782.161,517.749C-781.961,516.863 -782.106,515.559 -782.161,514.259L-782.161,514.26ZM-775.281,514.46C-773.418,514.088 -773.512,514.97 -773.585,516.254C-773.113,518.601 -774.927,518.068 -776.378,518.249C-776.949,518.327 -777.128,518.017 -777.175,517.65C-777.23,517.283 -777.073,516.853 -777.073,516.853C-777.073,514.801 -777.14,514.833 -775.277,514.46L-775.281,514.46ZM-773.087,514.66C-771.692,514.719 -770.464,514.803 -768.999,514.86C-767.504,514.915 -766.905,518.449 -769.198,518.749C-769.338,518.804 -772.01,518.507 -772.888,518.448C-772.717,517.451 -773.088,515.994 -773.088,514.659L-773.087,514.66ZM-785.053,514.961L-785.053,515.564C-785.053,515.878 -785.108,516.116 -785.053,516.261C-784.998,516.41 -784.976,516.428 -784.949,516.461C-784.894,516.516 -784.89,516.516 -784.749,516.565C-784.61,516.62 -784.412,516.704 -784.15,516.766C-783.897,516.824 -783.765,516.82 -783.651,516.766C-783.537,516.711 -783.48,516.711 -783.451,516.666C-783.396,516.573 -783.331,516.272 -783.347,515.868C-783.288,515.54 -783.292,515.352 -783.347,515.27C-783.402,515.186 -783.508,515.119 -783.647,515.07C-783.922,514.98 -784.312,515.015 -784.744,514.968C-784.879,514.913 -785.014,514.913 -785.045,514.968L-785.053,514.961ZM-775.281,515.359C-775.577,515.426 -775.728,515.508 -775.879,515.559C-776.028,515.614 -776.154,515.618 -776.18,515.659C-776.235,515.714 -776.262,515.714 -776.282,515.859C-776.337,516.02 -776.282,516.307 -776.282,516.657L-776.282,516.761C-776.282,516.761 -776.337,517.013 -776.282,517.159C-776.282,517.233 -776.337,517.324 -776.282,517.359C-776.227,517.414 -776.135,517.414 -775.981,517.359C-775.497,517.283 -774.988,517.359 -774.684,517.255C-774.535,517.2 -774.429,517.151 -774.384,517.055C-774.329,516.963 -774.317,516.719 -774.384,516.357C-774.329,515.91 -774.439,515.564 -774.486,515.46C-774.541,515.406 -774.562,515.382 -774.686,515.357C-774.813,515.302 -775,515.29 -775.284,515.357L-775.281,515.359ZM-849.169,519.946C-847.104,520.893 -845.127,528.911 -845.479,531.513C-846.395,534.382 -850.503,540.47 -853.556,540.487C-856.061,539.363 -858.263,529.998 -857.844,528.522C-857.424,527.045 -851.307,519.852 -849.169,519.946ZM-849.567,521.84C-850.235,521.782 -855.071,526.506 -856.348,528.92C-855.958,532.553 -854.76,537.622 -853.157,538.892C-850.279,537.573 -848.448,534.454 -847.174,531.014C-847.323,527.624 -848.18,522.995 -849.567,521.84ZM-822.844,523.735C-820.486,524.555 -817.752,532.484 -817.957,535.103C-818.767,538.021 -821.862,544.443 -826.233,544.576C-827.844,543.941 -831.52,537.759 -831.219,533.407C-830.936,529.323 -825.221,523.772 -822.844,523.735ZM-863.627,524.633C-862.76,524.578 -861.983,524.943 -861.732,525.829C-861.065,528.192 -862.015,530.611 -864.125,530.117C-866.236,529.622 -867.116,527.325 -867.116,527.325C-866.802,525.746 -865.07,524.67 -863.627,524.633ZM-823.242,525.729C-823.988,525.674 -829.574,531.585 -829.823,533.507C-829.132,537.11 -827.803,541.81 -825.935,542.979C-822.838,541.489 -820.223,538.712 -819.054,535.202C-819.466,531.827 -821.622,526.797 -823.242,525.729ZM-850.764,526.127C-849.928,526.512 -849.281,529.77 -849.068,530.814C-849.436,531.974 -851.323,535.394 -852.558,535.4C-853.571,534.949 -854.96,530.684 -854.951,529.817C-854.757,529.317 -851.628,526.089 -850.764,526.127ZM-797.217,526.328C-794.773,526.837 -790.771,533.776 -790.636,536.399C-791.06,539.398 -794.384,546.928 -797.715,547.567C-800.676,546.975 -805.356,538.43 -805.193,536.898C-805.033,535.365 -800.627,526.601 -797.217,526.328ZM-772.188,527.923C-769.182,528.199 -763.916,536.453 -763.912,537.994C-763.912,539.536 -768.291,548.368 -770.593,548.962C-773.077,548.721 -777.655,541.684 -778.072,539.091C-777.968,536.064 -775.431,528.917 -772.188,527.923ZM-838.598,528.721C-837.776,528.645 -837.007,528.721 -836.305,529.119C-836.305,529.119 -834.984,531.781 -836.305,534.105C-837.626,536.43 -840.626,535.348 -842.288,532.81C-843.534,530.905 -841.065,528.935 -838.598,528.72L-838.598,528.721ZM-797.217,528.921C-797.959,528.998 -801.853,532.255 -803.399,536.998C-803.513,538.4 -799.72,544.854 -797.715,545.773C-794.837,543.893 -793.534,540.43 -792.829,536.798C-793.673,533.504 -795.472,529.77 -797.217,528.921ZM-823.641,529.421C-822.687,529.752 -820.465,533.697 -820.55,534.805C-820.677,536.176 -824.669,540.036 -825.435,540.09C-826.795,539.575 -827.377,534.774 -827.43,533.908C-827.05,532.634 -824.602,529.435 -823.641,529.421ZM-772.188,529.523C-774.848,531.701 -775.768,535.409 -776.077,539.095C-774.884,542.278 -772.519,546.316 -770.693,546.973C-769.963,546.822 -766.23,540.809 -765.607,538.098C-767.128,534.76 -770.097,530.22 -772.188,529.523ZM-811.077,531.916C-810.052,532.043 -809.072,533.061 -808.385,535.206C-808.385,535.206 -808.004,538.576 -810.379,538.996C-813.056,539.469 -815.14,536.524 -813.769,533.81C-813.121,532.528 -812.103,531.789 -811.077,531.916ZM-797.715,532.217C-796.727,532.419 -794.964,536.021 -794.524,537.002C-794.696,538.216 -796.368,542.728 -797.715,542.985C-798.913,542.744 -801.34,538.154 -801.504,537.302C-801.392,536.774 -798.666,532.356 -797.715,532.217ZM-771.69,533.014C-770.474,533.126 -767.756,536.772 -767.502,537.601C-767.557,538.139 -769.862,542.347 -770.793,542.587C-771.797,542.483 -773.54,539.526 -774.083,538.598C-774.028,537.374 -773.001,533.417 -771.69,533.014ZM-785.75,534.51C-784.56,534.324 -783.144,535.231 -781.662,536.604C-781.662,536.604 -781.281,539.974 -783.655,540.393C-786.333,540.867 -789.015,538.819 -787.644,536.106C-787.16,535.143 -786.463,534.622 -785.75,534.51ZM-842.693,551.767C-842.693,551.767 -843.492,564.753 -845.661,567.19C-849.938,568.925 -867.289,569.799 -867.289,569.799L-867.506,568.348L-855.966,564.876C-855.966,564.876 -852.08,562.131 -851.893,561.523L-849.763,550.07C-847.266,551.147 -845.022,551.604 -842.688,551.767L-842.693,551.767ZM-791.977,555.179C-791.977,555.179 -792.439,567.252 -791.348,568.252C-789.99,569.495 -778.426,571.176 -778.426,571.176C-777.997,571.673 -778.426,571.977 -779.357,572.546C-785.483,572.397 -785.709,572.591 -788.322,572.489C-791.919,572.297 -796.249,571.884 -797.201,571.362C-800.579,568.915 -799.844,565.292 -799.933,561.772L-799.849,554.839C-797.602,555.215 -794.595,555.283 -791.979,555.179L-791.977,555.179Z" style="fill:white;fill-opacity:0.9;fill-rule:nonzero;"/>
            </g>
        </g>
    </g>
</svg>
