<svg viewBox="0 0 98 123" fill="currentColor"><path d="M11.485 0C11.161.295-3.106 18.443.62 28.799l15.586 14.736C12.054 58.579.867 92.526 2.958 94.541c.473.455 11.902 5.739 11.902 5.739l-3.047 10.059S.946 113.233.479 113.811c-.758.935-.22 4.523.425 6.092 1.386.641 22.289.429 24.016-.851 1.218-.902 2.126-15.712 2.126-15.712 7.853.835 13.905 2.024 22.493 2.396l-.241 10.696c-.913 7.505 10.296 6.019 23.864 5.667.979-.768 2.511-4.314 2.054-5.667l-12.327-3.826.089-6.465c6.299.349 16.468 1.996 20.488-1.719 5.431-5.022-10.591-48.97-10.591-48.97 5.639-1.4 24.07-6.872 24.213-16.848.148-10.355-16.196-27.409-16.196-27.409l-8.797 1.441c4.056 7.638 9.362 13.384 11.126 19.634 1.217 4.309-.039 7.938-9.776 9.211-7.606-1.193-13.604-4.272-19.959-8.349 7.893-10.139 5.8-18.238-2.53-20.017-7.221-1.542-11.628 4.41-12.198 11.572-.164 2.064.967 7.088.967 7.088-12.123 1.445-18.862-3.981-26.496-10.556L19.888.977C16.694.697 14.345.326 11.485 0zm48.048 107.018c.327 2.436-.229 6.646.03 8.983 3.761.81 6.59 1.227 9.286 1.588.305.353.266 1.213-.396 1.617-4.352-.106-13.037-.336-14.518-1.059-1.18-1.704-.692-11.295-.692-11.295l6.29.166zm-35.866-3.012s-1.295 9.784-2.062 11.875c-3.039 1.233-16.164 1.231-16.164 1.231l-.315-1.556 10.076-2.173 3.078-10.705c1.784.698 3.76 1.035 5.39 1.328h-.003zm49.278-16.691c1.677-.13 6.123 6.094 6.11 7.189-.008.66-4.105 7.46-4.698 7.445-1.486-.037-5.293-6.029-5.362-6.666s2.273-7.838 3.95-7.968zm-17.98-.974c1.678.113 4.807 6.747 4.879 7.936.039.658-4.811 7.074-5.396 6.974-1.465-.252-4.659-6.949-4.636-7.59s3.475-7.433 5.153-7.32zm18.21 2.145c-.563.04-2.864 6.324-2.763 6.8s3.3 5.375 3.855 5.317c.514-.053 3.627-5.604 3.584-6.025s-4.113-6.132-4.676-6.092zm-18.21-.733c-.563-.041-3.782 5.629-3.751 6.115s2.795 5.618 3.353 5.642c.516.021 3.989-4.885 4.007-5.307s-3.046-6.408-3.609-6.45zm-18.61-3.518c1.654.304 4.004 7.253 3.939 8.442-.035.658-5.563 6.778-6.132 6.612-1.427-.417-3.86-7.737-3.764-8.37s4.303-6.988 5.957-6.684zm37.255 7.08c.484-.04 2.75 2.432 2.794 3.14s-1.678 3.716-2.06 3.834-2.443-2.794-2.515-3.356 1.298-3.578 1.781-3.618zm-18.66-.916c.485.03 2.371 2.802 2.313 3.509s-2.196 3.436-2.591 3.497-2.045-3.043-2.035-3.609 1.829-3.427 2.313-3.397zm-18.756-4.761c-.555-.106-4.402 5.16-4.426 5.646s2.134 5.901 2.686 5.988c.51.08 4.521-4.396 4.587-4.814s-2.293-6.714-2.847-6.82zm27.323 5.586c3.274-.872 5.17 4.623 1.794 5.481-4.055 1.032-4.828-4.673-1.794-5.481zm-45.031-9.717c1.603.226 3.853 7.671 3.748 8.297s-4.762 6.755-6.192 6.707c-.571-.02-3.881-7.371-3.85-8.025.052-1.084 4.69-7.204 6.294-6.979zm24.646 12.325c-.803-4.159 3.31-5.472 4.288-1.482.79 3.225-3.546 5.319-4.288 1.482zm-7.4-5.535c.478.085 2.035 3.055 1.896 3.75s-2.574 3.162-2.973 3.178-1.684-3.257-1.61-3.818 2.21-3.196 2.687-3.11zm-17.537-5.136c.539.072 2.644 5.955 2.519 6.421s-3.768 4.783-4.298 4.694c-.491-.082-2.823-5.339-2.756-5.753s3.996-5.434 4.535-5.362zm9 4.516c2.943 1.783.825 7.16-2.638 5.129-2.782-1.632.167-6.627 2.638-5.129zm-9.372-2.198c-.463-.067-2.787 2.248-2.871 2.947s1.391 3.774 1.751 3.913 2.514-2.624 2.616-3.176-1.034-3.616-1.496-3.684zm-6.866.984c1.095 4.247-3.063 6.357-4.201 2.095-.688-2.577 3.108-6.331 4.201-2.095zm.301-10.036l33.295 4.783c7.728.909 24.967 1.877 32.872 1.593.91-.033 3.383 1.622.779 2.423-1.925.592-26.165-1.014-29.572-1.414s-35.434-4.356-37.974-5.494c-.87-.39-.646-2.077.6-1.891zm64.787 1.363c.337.123.423 2.637.095 2.965-.267.268-2.633.23-2.769.12-.388-.316-.211-2.952.015-3.154.183-.162 2.345-.046 2.659.069zm-3.888-.087c.337.123.424 2.637.096 2.966-.267.268-2.634.229-2.769.119-.389-.315-.211-2.952.015-3.153.183-.163 2.345-.047 2.658.068zm-3.748-.083c.337.123.254 2.784-.074 3.113-.267.268-2.623-.013-2.759-.123-.388-.316-.051-2.857.175-3.059.183-.162 2.345-.046 2.658.069zm-3.713-.05c.252.135.209 2.709-.139 3.016-.283.25-2.643.06-2.771-.058-.367-.34-.022-2.96.217-3.146.193-.151 2.399.03 2.693.188zm-4.136-.3c.33.142.278 2.657-.067 2.967-.281.253-2.642.085-2.771-.033-.371-.336-.05-2.959.188-3.147.191-.153 2.343.082 2.65.213zm-3.877-.299c.33.142.278 2.656-.067 2.967-.281.253-2.642.084-2.771-.033-.371-.336-.049-2.959.188-3.148.191-.152 2.344.083 2.65.214zm-3.737-.288c.329.141.1 2.794-.245 3.104-.281.253-2.619-.157-2.748-.274-.37-.336.105-2.855.342-3.044.192-.153 2.344.082 2.651.214zm17.467 2.012c-.055.046-.081.921-.011 1.007.037.045.921.073.967.018.065-.079.089-.9-.002-.988-.072-.071-.902-.08-.954-.037zm-7.566-.197c-.057.042-.139.914-.075 1.005.034.047.915.132.964.079.07-.074.143-.921.058-1.015-.068-.076-.892-.108-.947-.069zM49.24 76.43c.245.149.061 2.716-.303 3.003-.297.234-2.642-.084-2.764-.209-.348-.36.14-2.957.389-3.13.201-.14 2.393.162 2.678.336zm-4.245-.509c.326.15.211 2.662-.142 2.964-.288.245-2.643.018-2.77-.102-.362-.346.026-2.96.268-3.142.195-.148 2.34.141 2.644.28zm9.892 1.945c-.057.043-.131.915-.066 1.005.034.047.916.124.965.07.069-.074.137-.892.052-.985-.068-.075-.897-.13-.951-.09zm-13.76-2.342c.326.15.211 2.663-.142 2.964-.287.246-2.643.018-2.77-.102-.362-.345.026-2.959.268-3.142.195-.148 2.34.141 2.644.28zm6.217 1.731c-.06.039-.19.905-.13.999.031.049.906.182.958.132.074-.07.193-.912.113-1.01-.063-.079-.885-.157-.941-.121zm-9.947-2.113c.327.15.031 2.796-.322 3.097-.288.246-2.614-.223-2.74-.343-.362-.345.176-2.852.418-3.035.196-.147 2.341.141 2.644.281zm-3.697-.346c.24.155-.008 2.716-.379 2.995-.303.226-2.639-.151-2.758-.28-.339-.367.215-2.951.468-3.118.204-.135 2.388.222 2.669.403zm5.609 1.578c-.059.041-.155.911-.091 1.003.032.047.912.146.962.094.071-.073.16-.889.077-.984-.067-.077-.893-.152-.948-.113zm-9.532-2.099c.319.163.101 2.669-.264 2.955-.297.234-2.642-.09-2.763-.216-.347-.36.147-2.956.396-3.128.202-.14 2.334.237 2.631.389zm-3.848-.556c.319.163.101 2.669-.264 2.956-.298.233-2.642-.091-2.763-.217-.348-.36.147-2.956.396-3.128.201-.14 2.333.237 2.631.389zm5.854 1.854c-.061.037-.212.9-.155.996.029.049.901.204.955.155.075-.068.215-.906.138-1.007-.061-.08-.881-.179-.938-.144zm-9.565-2.39c.32.163-.085 2.795-.45 3.082-.297.233-2.602-.331-2.723-.456-.348-.36.294-2.842.543-3.015.201-.139 2.333.237 2.63.389zm-9.189-5.194c4.274.307 16.947 2.377 27.478 3.537 7.734.852 27.435 1.826 34.185 1.748.947-.011 1.892 1.458.892 2.359-1.496 1.348-26.631-.945-30.037-1.346s-33.54-3.228-33.621-4.877c-.04-.771.505-1.463 1.103-1.421zm5.509 4.696c.234.165-.12 2.714-.502 2.977-.312.214-2.631-.26-2.744-.393-.324-.381.336-2.94.596-3.097.21-.126 2.377.321 2.65.513zm5.539 1.808c-.06.038-.192.904-.132.998.03.049.905.184.958.134.073-.07.196-.882.117-.98-.064-.079-.886-.189-.943-.152zm-11.821-2.995c.331-.043 2.466.319 2.608.518.177.247-.23 2.857-.678 3.08-.156.077-2.473-.406-2.675-.726-.247-.392.389-2.826.745-2.872zm4.335 1.885c-.063.034-.249.89-.196.988.027.05.892.241.947.195.078-.065.253-.897.18-1-.058-.084-.872-.216-.931-.183zm10.04-18.648c.85.142 7.296 11.689 8.076 11.76s11.22-10.123 13.176-10.13c1.944-.007 10.142 13.656 11.207 13.714.971.052 10.868-11.289 12.171-10.526 1.31.766-11.147 12.409-12.326 12.538-1.621.179-9.661-14.188-11.194-14.168-1.984.039-12.255 10.981-13.459 10.697s-6.805-11.991-7.793-11.901c-.918.08-10.909 8.855-12.114 9.634s-1.714-.359-1.346-.708c2.043-1.937 12.751-11.051 13.602-10.91zm42.009 13.32c-.089-2.53 3.132-2.675 3.048.072-.041 1.324-2.997 1.346-3.048-.072zM45.434 65.99c-.777-2.299 1.984-3.641 3.016-1.054.73 1.831-2.298 3.175-3.016 1.054zm-19.937-4.171c2.434.862 1.722 4.066-1.215 3.064-2.037-.695-.582-3.701 1.215-3.064zm32.8-.354c.679-2.501 3.748-1.982 2.833.921-.418 1.328-3.232.548-2.833-.921zm-23.441-2.891c.318-2.422 3.537-2.253 3.151.41-.259 1.792-3.349 1.099-3.151-.41zm-18.291-1.962c-1.277-2.2 1.496-3.928 2.84-1.665.856 1.443-1.473 4.02-2.84 1.665zm49.795-5.587c-.995-5.977-1.348-6.628-.404-6.771.844-.127.845.308 1.745 5.143.708 3.8 1.221 7.136-.193 7.243-1.074.082-.459-1.479-1.148-5.615zm-3.506.333c.102-5.876-.657-7.337.257-7.381 1.036-.049.78.787 1.236 6.36.053.65.392 5.97-.245 5.98-1.077.032-1.321-.766-1.248-4.959zm-3.282-.523c.206-5.55-.344-7.339.92-7.158.952.137.57.972.781 6.449.025.652.056 6.06-1.151 5.949-.739-.068-.705-1.056-.55-5.24zm-7.721-10.416c7.779.465 9.727 15.067-1.63 13.319-7.503-1.154-4.432-13.681 1.63-13.319zM43 47.164c-.467 4.161-.58 5.144-1.321 5.101-1.21-.07-.377-5.413-.255-6.054 1.021-5.385.767-6.267 1.729-6.261 1.277.008.468 1.696-.153 7.214zm-3.323.031c-.55 4.158-.909 4.911-1.97 4.719-.628-.104.496-5.315.645-5.95 1.278-5.444 1.149-6.309 2.167-6.106.896.179-.071 1.511-.842 7.337zm12.707-5.047c-4.248-.526-6.91 8.334-1.706 9.493 8.329 1.855 6.16-8.941 1.706-9.493zm-16.077 4.163c-1.001 4.072-.507 5.674-1.572 5.512-1.401-.214-.637-3.502.357-7.238 1.265-4.752 1.3-5.186 2.131-4.995.931.214.53.836-.916 6.721zM79.73 14.546s11.74 13.68 13.264 20.044c1.022 4.269 1.612 6.949-7.106 12.084-3.229 1.902-12.684 4.877-13.901 4.686-.702-.11-1.374-4.501-1.647-6.107 3.328-.161 16.686-1.525 16.386-8.446-.302-6.993-2.244-7.964-10.12-21.69l3.124-.571zm-52.02 23.05c5.703.818 6.199 12.697-.983 12.27-11.357-.676-7.177-13.44.983-12.27zm24.07 6.724c2.344-.44 3.745 4.426.992 4.959-3.76.729-3.718-4.447-.992-4.959zm-24.889-5.276c-4.237-.425-8.177 8.458-.097 8.474 5.562.012 3.621-8.12.097-8.474zm.154 2.067c2.492.836 1.577 5.452-1.851 4.258-2.857-.994-.708-5.116 1.851-4.258zM14.364 4.987L8.781 22.413l12.209 9.963c-1.106 1.511-2.035 3.983-3.114 6.354-1.541-1.501-10.336-9.649-13.069-13.029C3.47 21.366 12.251 4.846 12.513 4.85l1.851.137zM43.91 33.608c-2.202-8.462-1.015-17.555 6.517-16.175 5.05.924 5.54 7.217-.754 16.079.716 1.218 3.239 2.745 3.821 3.715.565.942.437 1.274-.822 1.179-2.517-.193-13.289-1.524-13.964-1.92s-1.111-.699-.794-1.639 4.961-1.061 5.996-1.239z"/></svg>